<svg width="34" height="34" viewBox="0 0 34 34" fill="none" xmlns="http://www.w3.org/2000/svg">
<path d="M25.5 10.1434C25.415 10.1292 25.3159 10.1292 25.2309 10.1434C23.2759 10.0725 21.7175 8.47171 21.7175 6.48838C21.7175 4.46254 23.3467 2.83337 25.3725 2.83337C27.3984 2.83337 29.0275 4.47671 29.0275 6.48838C29.0134 8.47171 27.455 10.0725 25.5 10.1434Z" stroke="#A1F524" stroke-width="1.5" stroke-linecap="round" stroke-linejoin="round"/>
<path d="M24.0409 20.4567C25.9818 20.7825 28.1209 20.4425 29.6226 19.4367C31.6201 18.105 31.6201 15.9234 29.6226 14.5917C28.1068 13.5859 25.9392 13.2459 23.9984 13.5859" stroke="#A1F524" stroke-width="1.5" stroke-linecap="round" stroke-linejoin="round"/>
<path d="M8.45756 10.1434C8.54256 10.1292 8.64172 10.1292 8.72672 10.1434C10.6817 10.0725 12.2401 8.47171 12.2401 6.48838C12.2401 4.46254 10.6109 2.83337 8.58506 2.83337C6.55922 2.83337 4.93005 4.47671 4.93005 6.48838C4.94422 8.47171 6.50256 10.0725 8.45756 10.1434Z" stroke="#A1F524" stroke-width="1.5" stroke-linecap="round" stroke-linejoin="round"/>
<path d="M9.9167 20.4567C7.97587 20.7825 5.83671 20.4425 4.33504 19.4367C2.33754 18.105 2.33754 15.9234 4.33504 14.5917C5.85087 13.5859 8.01837 13.2459 9.9592 13.5859" stroke="#A1F524" stroke-width="1.5" stroke-linecap="round" stroke-linejoin="round"/>
<path d="M17 20.7259C16.915 20.7117 16.8159 20.7117 16.7309 20.7259C14.7759 20.6551 13.2175 19.0542 13.2175 17.0709C13.2175 15.0451 14.8467 13.4159 16.8725 13.4159C18.8984 13.4159 20.5275 15.0592 20.5275 17.0709C20.5134 19.0542 18.955 20.6692 17 20.7259Z" stroke="#A1F524" stroke-width="1.5" stroke-linecap="round" stroke-linejoin="round"/>
<path d="M12.8775 25.1884C10.88 26.5201 10.88 28.7017 12.8775 30.0334C15.1442 31.5492 18.8559 31.5492 21.1225 30.0334C23.12 28.7017 23.12 26.5201 21.1225 25.1884C18.87 23.6867 15.1442 23.6867 12.8775 25.1884Z" stroke="#A1F524" stroke-width="1.5" stroke-linecap="round" stroke-linejoin="round"/>
</svg>
