<svg width="33" height="33" viewBox="0 0 33 33" fill="none" xmlns="http://www.w3.org/2000/svg">
<path d="M13.8187 3.47877L5.54122 8.88252C2.88747 10.615 2.88747 14.4925 5.54122 16.225L13.8187 21.6288C15.3037 22.605 17.7512 22.605 19.2362 21.6288L27.4725 16.225C30.1125 14.4925 30.1125 10.6288 27.4725 8.89627L19.2362 3.49252C17.7512 2.50252 15.3037 2.50252 13.8187 3.47877Z" stroke="#A1F524" stroke-width="1.5" stroke-linecap="round" stroke-linejoin="round"/>
<path d="M7.74129 17.985L7.72754 24.4337C7.72754 26.18 9.07504 28.05 10.725 28.6L15.1113 30.0575C15.8675 30.305 17.1188 30.305 17.8888 30.0575L22.275 28.6C23.925 28.05 25.2725 26.18 25.2725 24.4337V18.0537" stroke="#A1F524" stroke-width="1.5" stroke-linecap="round" stroke-linejoin="round"/>
<path d="M29.425 20.625V12.375" stroke="#A1F524" stroke-width="1.5" stroke-linecap="round" stroke-linejoin="round"/>
</svg>
