<svg width="33" height="33" viewBox="0 0 33 33" fill="none" xmlns="http://www.w3.org/2000/svg">
<path d="M11.0001 30.25H22.0001C27.5276 30.25 28.5176 28.0363 28.8064 25.3413L29.8376 14.3413C30.2089 10.9863 29.2464 8.25 23.3751 8.25H9.62513C3.75388 8.25 2.79138 10.9863 3.16263 14.3413L4.19388 25.3413C4.48263 28.0363 5.47263 30.25 11.0001 30.25Z" stroke="#A1F524" stroke-width="1.5" stroke-miterlimit="10" stroke-linecap="round" stroke-linejoin="round"/>
<path d="M11 8.25003V7.15003C11 4.71628 11 2.75003 15.4 2.75003H17.6C22 2.75003 22 4.71628 22 7.15003V8.25003" stroke="#A1F524" stroke-width="1.5" stroke-miterlimit="10" stroke-linecap="round" stroke-linejoin="round"/>
<path d="M19.25 17.875V19.25C19.25 19.2637 19.25 19.2638 19.25 19.2775C19.25 20.7763 19.2363 22 16.5 22C13.7775 22 13.75 20.79 13.75 19.2912V17.875C13.75 16.5 13.75 16.5 15.125 16.5H17.875C19.25 16.5 19.25 16.5 19.25 17.875Z" stroke="#A1F524" stroke-width="1.5" stroke-miterlimit="10" stroke-linecap="round" stroke-linejoin="round"/>
<path d="M29.7687 15.125C26.5925 17.435 22.9625 18.81 19.25 19.2775" stroke="#A1F524" stroke-width="1.5" stroke-miterlimit="10" stroke-linecap="round" stroke-linejoin="round"/>
<path d="M3.60266 15.4956C6.69641 17.6131 10.1889 18.8919 13.7502 19.2906" stroke="#A1F524" stroke-width="1.5" stroke-miterlimit="10" stroke-linecap="round" stroke-linejoin="round"/>
</svg>
