<svg width="33" height="33" viewBox="0 0 33 33" fill="none" xmlns="http://www.w3.org/2000/svg">
<path d="M30.25 23.0175V6.4212C30.25 4.7712 28.9025 3.54745 27.2662 3.68495H27.1838C24.2963 3.93245 19.91 5.4037 17.4625 6.9437L17.2287 7.09495C16.83 7.34245 16.17 7.34245 15.7713 7.09495L15.4275 6.8887C12.98 5.36245 8.6075 3.90495 5.72 3.6712C4.08375 3.5337 2.75 4.7712 2.75 6.40745V23.0175C2.75 24.3375 3.8225 25.575 5.1425 25.74L5.54125 25.795C8.525 26.1937 13.1313 27.7062 15.7713 29.15L15.8263 29.1775C16.1975 29.3837 16.7888 29.3837 17.1463 29.1775C19.7863 27.72 24.4063 26.1937 27.4038 25.795L27.8575 25.74C29.1775 25.575 30.25 24.3375 30.25 23.0175Z" stroke="#A1F524" stroke-width="1.5" stroke-linecap="round" stroke-linejoin="round"/>
<path d="M16.5 7.54871V28.1737" stroke="#A1F524" stroke-width="1.5" stroke-linecap="round" stroke-linejoin="round"/>
<path d="M10.6562 11.6737H7.5625" stroke="#A1F524" stroke-width="1.5" stroke-linecap="round" stroke-linejoin="round"/>
<path d="M11.6875 15.7987H7.5625" stroke="#A1F524" stroke-width="1.5" stroke-linecap="round" stroke-linejoin="round"/>
</svg>
